<svg width="19" height="20" viewBox="0 0 19 20" fill="none" xmlns="http://www.w3.org/2000/svg">
<path d="M3 0.5H16C16.7956 0.5 17.5587 0.816071 18.1213 1.37868C18.6839 1.94129 19 2.70435 19 3.5V16.5C19 17.2956 18.6839 18.0587 18.1213 18.6213C17.5587 19.1839 16.7956 19.5 16 19.5H3C2.20435 19.5 1.44129 19.1839 0.87868 18.6213C0.316071 18.0587 0 17.2956 0 16.5V3.5C0 2.70435 0.316071 1.94129 0.87868 1.37868C1.44129 0.816071 2.20435 0.5 3 0.5ZM3 1.5C2.46957 1.5 1.96086 1.71071 1.58579 2.08579C1.21071 2.46086 1 2.96957 1 3.5V6.5H6V1.5H3ZM1 16.5C1 17.0304 1.21071 17.5391 1.58579 17.9142C1.96086 18.2893 2.46957 18.5 3 18.5H6V13.5H1V16.5ZM6 7.5H1V12.5H6V7.5ZM16 18.5C16.5304 18.5 17.0391 18.2893 17.4142 17.9142C17.7893 17.5391 18 17.0304 18 16.5V13.5H13V18.5H16ZM18 7.5H13V12.5H18V7.5ZM18 3.5C18 2.96957 17.7893 2.46086 17.4142 2.08579C17.0391 1.71071 16.5304 1.5 16 1.5H13V6.5H18V3.5ZM7 1.5V6.5H12V1.5H7ZM7 18.5H12V13.5H7V18.5ZM12 7.5H7V12.5H12V7.5Z" fill="#8367D8"/>
</svg>
