<svg width="8" height="1" viewBox="0 0 8 1" fill="none" xmlns="http://www.w3.org/2000/svg">
<path d="M4 4.76837e-07L4.5 1.9744e-07L7.5 0C7.63261 0 7.75979 0.0526785 7.85355 0.146447C7.94732 0.240215 8 0.367392 8 0.5C8 0.632608 7.94732 0.759786 7.85355 0.853554C7.75979 0.947322 7.63261 1 7.5 1H4.5L4 1L3.5 1H0.5C0.367392 1 0.240215 0.947322 0.146447 0.853554C0.0526785 0.759786 0 0.632608 0 0.5C0 0.367392 0.0526785 0.240215 0.146447 0.146447C0.240215 0.0526785 0.367392 0 0.5 0H3.5L4 4.76837e-07Z" fill="#252525"/>
</svg>
