<svg width="8" height="9" viewBox="0 0 8 9" fill="none" xmlns="http://www.w3.org/2000/svg">
<path d="M4 0.5C4.13261 0.5 4.25979 0.552679 4.35355 0.646447C4.44732 0.740215 4.5 0.867392 4.5 1V4H7.5C7.63261 4 7.75979 4.05268 7.85355 4.14645C7.94732 4.24021 8 4.36739 8 4.5C8 4.63261 7.94732 4.75979 7.85355 4.85355C7.75979 4.94732 7.63261 5 7.5 5H4.5V8C4.5 8.13261 4.44732 8.25979 4.35355 8.35355C4.25979 8.44732 4.13261 8.5 4 8.5C3.86739 8.5 3.74021 8.44732 3.64645 8.35355C3.55268 8.25979 3.5 8.13261 3.5 8V5H0.5C0.367392 5 0.240215 4.94732 0.146447 4.85355C0.0526785 4.75979 0 4.63261 0 4.5C0 4.36739 0.0526785 4.24021 0.146447 4.14645C0.240215 4.05268 0.367392 4 0.5 4H3.5V1C3.5 0.867392 3.55268 0.740215 3.64645 0.646447C3.74021 0.552679 3.86739 0.5 4 0.5Z" fill="#252525"/>
</svg>
