<svg width="25" height="25" viewBox="0 0 25 25" fill="none" xmlns="http://www.w3.org/2000/svg">
<path d="M16.1504 12.3999C16.1504 13.3945 15.7553 14.3483 15.052 15.0516C14.3488 15.7548 13.395 16.1499 12.4004 16.1499C11.4058 16.1499 10.452 15.7548 9.74874 15.0516C9.04548 14.3483 8.65039 13.3945 8.65039 12.3999C8.65039 12.1862 8.67289 11.9774 8.71164 11.7749H7.40039V16.7712C7.40039 17.1187 7.68164 17.3999 8.02914 17.3999H16.7729C16.9394 17.3996 17.099 17.3332 17.2167 17.2153C17.3343 17.0974 17.4004 16.9377 17.4004 16.7712V11.7749H16.0891C16.1279 11.9774 16.1504 12.1862 16.1504 12.3999V12.3999ZM12.4004 14.8999C12.7288 14.8998 13.0539 14.8351 13.3573 14.7093C13.6606 14.5836 13.9363 14.3993 14.1684 14.167C14.4006 13.9348 14.5847 13.6591 14.7103 13.3556C14.8359 13.0522 14.9005 12.727 14.9004 12.3987C14.9003 12.0703 14.8355 11.7451 14.7098 11.4418C14.5841 11.1384 14.3998 10.8628 14.1675 10.6306C13.9353 10.3985 13.6596 10.2144 13.3561 10.0888C13.0527 9.96317 12.7275 9.89857 12.3991 9.89865C11.7359 9.89882 11.1 10.1624 10.6311 10.6315C10.1623 11.1006 9.89897 11.7367 9.89914 12.3999C9.89931 13.0631 10.1629 13.6991 10.632 14.1679C11.1011 14.6368 11.7372 14.9001 12.4004 14.8999V14.8999ZM15.4004 9.7749H16.8991C16.9987 9.7749 17.0942 9.73543 17.1647 9.66514C17.2353 9.59485 17.2751 9.49947 17.2754 9.3999V7.90115C17.2754 7.80136 17.2358 7.70566 17.1652 7.6351C17.0946 7.56454 16.9989 7.5249 16.8991 7.5249H15.4004C15.3006 7.5249 15.2049 7.56454 15.1343 7.6351C15.0638 7.70566 15.0241 7.80136 15.0241 7.90115V9.3999C15.0254 9.60615 15.1941 9.7749 15.4004 9.7749V9.7749ZM12.4004 0.399902C9.21779 0.399902 6.16555 1.66418 3.91511 3.91462C1.66467 6.16506 0.400391 9.21731 0.400391 12.3999C0.400391 15.5825 1.66467 18.6347 3.91511 20.8852C6.16555 23.1356 9.21779 24.3999 12.4004 24.3999C13.9763 24.3999 15.5367 24.0895 16.9926 23.4865C18.4485 22.8834 19.7714 21.9995 20.8857 20.8852C22 19.7709 22.8839 18.448 23.4869 16.9921C24.09 15.5362 24.4004 13.9758 24.4004 12.3999C24.4004 10.824 24.09 9.26361 23.4869 7.8077C22.8839 6.35179 22 5.02892 20.8857 3.91462C19.7714 2.80032 18.4485 1.9164 16.9926 1.31335C15.5367 0.710292 13.9763 0.399902 12.4004 0.399902V0.399902ZM18.6504 17.2612C18.6504 18.0249 18.0254 18.6499 17.2616 18.6499H7.53914C6.77539 18.6499 6.15039 18.0249 6.15039 17.2612V7.53865C6.15039 6.7749 6.77539 6.1499 7.53914 6.1499H17.2616C18.0254 6.1499 18.6504 6.7749 18.6504 7.53865V17.2612V17.2612Z" fill="#9B9B9B"/>
</svg>
