<svg width="25" height="25" viewBox="0 0 25 25" fill="none" xmlns="http://www.w3.org/2000/svg">
<path d="M12.4004 0.399902C5.77289 0.399902 0.400391 5.7724 0.400391 12.3999C0.400391 19.0274 5.77289 24.3999 12.4004 24.3999C19.0279 24.3999 24.4004 19.0274 24.4004 12.3999C24.4004 5.7724 19.0279 0.399902 12.4004 0.399902ZM17.2816 10.2299C17.2866 10.3324 17.2879 10.4349 17.2879 10.5349C17.2879 13.6599 14.9116 17.2612 10.5641 17.2612C9.27951 17.2633 8.0216 16.8943 6.94164 16.1987C7.12539 16.2212 7.31414 16.2299 7.50539 16.2299C8.61289 16.2299 9.63164 15.8537 10.4404 15.2187C9.94754 15.209 9.46998 15.0458 9.07428 14.7518C8.67858 14.4578 8.38445 14.0477 8.23289 13.5787C8.58684 13.646 8.95145 13.6318 9.29914 13.5374C8.7642 13.4292 8.28314 13.1394 7.93753 12.717C7.59191 12.2946 7.40302 11.7657 7.40289 11.2199V11.1912C7.72164 11.3674 8.08664 11.4749 8.47414 11.4874C7.97264 11.1536 7.61762 10.6407 7.4817 10.0538C7.34577 9.4669 7.4392 8.85022 7.74289 8.3299C8.33658 9.0599 9.07697 9.65709 9.9161 10.0828C10.7552 10.5085 11.6744 10.7532 12.6141 10.8012C12.4947 10.294 12.5461 9.76166 12.7604 9.28678C12.9747 8.81191 13.3399 8.42114 13.7992 8.17523C14.2585 7.92932 14.7862 7.84206 15.3003 7.92699C15.8143 8.01193 16.2858 8.26431 16.6416 8.6449C17.1706 8.54025 17.6779 8.34622 18.1416 8.07115C17.9653 8.61882 17.5962 9.08387 17.1029 9.3799C17.5714 9.32347 18.029 9.1975 18.4604 9.00615C18.1435 9.48102 17.7443 9.89545 17.2816 10.2299V10.2299Z" fill="#9B9B9B"/>
</svg>
